<?xml version="1.0" encoding="UTF-8"?>
<svg id="Layer_1" data-name="Layer 1" xmlns="http://www.w3.org/2000/svg" viewBox="0 0 1000 1000">
  <defs>
    <style>
      .cls-1 {
        fill: #fff;
      }

      .cls-1, .cls-2 {
        stroke-width: 0px;
      }

      .cls-2 {
        fill: #483cfa;
      }
    </style>
  </defs>
  <rect class="cls-2" x="0" y="0" width="1000" height="1000" rx="361.5" ry="361.5"/>
  <g>
    <path class="cls-1" d="M810.53,97.72l-506.48,326.09c-12.89,9.91-12.71,24.2,0,33.71l121.37,83.64c9.81,6.62,18.87,10.55,33.89,4.33l62.85-33.41c5.38-3.42,12.23-5.74,20.31-.12l56.66,39.57c3.5,3.25.42,9.18-1.5,10.55l-188.07,121.49c-22.95,11.72-44.85.45-51.61-3.97l-200.09-138.48c-54.62-43.94-32.51-139.83,33.59-184.12L623.59,94.23l186.94,3.48Z"/>
    <path class="cls-1" d="M198.58,905.77l498.55-338.09c12.65-10.22,12.13-24.5-.8-33.7l-120.98-83.68c-9.96-6.39-21.47-7.13-36.34-.55l-62.03,34.9c-5.29,3.55-12.09,6.03-20.3.61l-56.72-39.28c-3.58-3.16-1.51-8.1.38-9.5l185.11-125.95c20.72-12.13,39.64-9.84,54.54-1.3l200.49,137.7c55.65,42.62,35.84,139.02-29.18,184.87l-425.74,273-186.97.98Z"/>
  </g>
</svg>